# xmcd
#
# Track frame offsets: 
#        150
#        17580
#        28965
#        45795
#        58980
#        72127
#        78532
#        93995
#        111065
#        123362
#        135877
#        149480
#        161867
#        172197
#
# Disc length: 2506 seconds
#
# Revision: 0
# Processed by: cddbd v1.5.2PL0 Copyright (c) Steve Scherf et al.
# Submitted via: ExactAudioCopyFreeDBPlugin 1.0
#
DISCID=be09c80e
DTITLE=Doug Quattlebaum - Softee Man Blues
DYEAR=1994
DGENRE=Blues
TTITLE0=Sweet Little Woman
TTITLE1=Whiskey Headed Woman
TTITLE2=Trouble In Mind
TTITLE3=You Is One Black Cat
TTITLE4=On My Way To School
TTITLE5=You Ain't No Good
TTITLE6=Come Bach Blues
TTITLE7=Mama Don't Allow Me To Stay Out All Night Long
TTITLE8=Big Leg Woman
TTITLE9=Love My Baby
TTITLE10=Black Night Is Falling
TTITLE11=Baby Take A Chance With Me
TTITLE12=So Sweet
TTITLE13=Worried Mind Blues
EXTD=
EXTT0=
EXTT1=
EXTT2=
EXTT3=
EXTT4=
EXTT5=
EXTT6=
EXTT7=
EXTT8=
EXTT9=
EXTT10=
EXTT11=
EXTT12=
EXTT13=
PLAYORDER=
